Coordinates
version=1
nRows=9
nColumns=42
inDegrees=yes

Units are S.I. units (second, meters, Newtons, ...)
If the header above contains a line with 'inDegrees', this indicates whether rotational values are in degrees (yes) or radians (no).

endheader
time	pelvis_tilt	pelvis_list	pelvis_rotation	pelvis_tx	pelvis_ty	pelvis_tz	hip_flexion_r	hip_adduction_r	hip_rotation_r	knee_angle_r	knee_adduction_r	knee_angle_r_beta	ankle_angle_r	subtalar_angle_r	mtp_angle_r	hip_flexion_l	hip_adduction_l	hip_rotation_l	knee_angle_l	knee_adduction_l	knee_angle_l_beta	ankle_angle_l	subtalar_angle_l	mtp_angle_l	lumbar_extension	lumbar_bending	lumbar_rotation	arm_flex_r	arm_add_r	arm_rot_r	elbow_flex_r	pro_sup_r	wrist_flex_r	wrist_dev_r	arm_flex_l	arm_add_l	arm_rot_l	elbow_flex_l	pro_sup_l	wrist_flex_l	wrist_dev_l
      1.71000000	     14.77071817	      1.62582758	     -0.99015812	     -0.50275758	      0.89136894	      0.12156575	     -5.34790205	     -2.75690723	     -6.32160649	     68.36001814	     -4.49133747	      1.19310739	      2.97629464	    -18.21337043	     -7.50245788	     -6.81958889	      4.57878427	    -14.62045616	     21.18509091	     -0.95211682	      0.36974959	     19.52810897	     -0.84742594	     -7.50245788	    -28.83862344	     -4.15627572	     -0.98317532	     -3.07908959	     -3.96137521	    -18.73126691	     34.69242396	     90.00000001	      0.00000000	      0.00000000	     -0.41865650	     -3.31102765	    -18.77358020	     40.82937255	     90.00000001	      0.00000000	      0.00000000
      1.72000000	     14.91041286	      1.36304650	     -0.66663074	     -0.49241139	      0.89250828	      0.12129299	     -3.73271198	     -2.55968205	     -6.22237796	     68.70734074	     -4.33168300	      1.19916932	      5.01271962	    -18.22987371	     -7.50238998	     -8.25189230	      4.27558972	    -14.32865957	     20.12538767	     -0.74938417	      0.35125428	     19.80851919	     -0.08178207	     -7.50238998	    -29.07306850	     -3.67414200	     -1.45027355	     -3.21667391	     -3.99264540	    -19.03859075	     34.59400876	     90.00000001	      0.00000000	      0.00000000	     -0.12847443	     -3.39254687	    -18.29862732	     41.44682685	     90.00000001	      0.00000000	      0.00000000
      1.73000000	     14.98586829	      1.08607808	     -0.36877263	     -0.48209152	      0.89338280	      0.12116476	     -2.09063221	     -2.31682528	     -6.03446971	     68.73232777	     -4.11151949	      1.19960542	      6.61993285	    -18.23343369	     -7.50228170	     -9.53876899	      3.91862949	    -14.49092422	     19.18649616	     -0.67856603	      0.33486753	     20.12184394	      0.80539886	     -7.50228170	    -29.22830774	     -3.20676935	     -1.88730121	     -3.27542971	     -3.95919902	    -19.64228992	     34.41827625	     90.00000001	      0.00000000	      0.00000000	      0.00535420	     -3.58290852	    -17.38191244	     42.29825446	     90.00000001	      0.00000000	      0.00000000
      1.74000000	     14.95310329	      0.75249570	     -0.10881124	     -0.47179700	      0.89397712	      0.12112707	     -0.36409020	     -1.98976651	     -6.05970916	     68.40429022	     -4.13804583	      1.19388009	      7.47707112	    -18.35328776	     -7.50224942	    -10.66174813	      3.47911327	    -14.76708864	     18.35230036	     -0.59945154	      0.32030807	     20.25213508	      1.18183542	     -7.50224942	    -29.24187883	     -2.69509064	     -2.21474440	     -3.46302297	     -4.01371065	    -19.77103482	     34.38486239	     90.00000001	      0.00000000	      0.00000000	      0.35597337	     -3.61401239	    -17.14687374	     42.67472210	     90.00000001	      0.00000000	      0.00000000
      1.75000000	     15.08726381	      0.42943704	      0.18422508	     -0.46139923	      0.89454644	      0.12121281	      1.04217846	     -1.66271775	     -6.08213767	     67.68785602	     -4.06414289	      1.18137595	      8.91043700	    -18.42029736	     -7.50220450	    -12.10775259	      3.00493422	    -14.60568526	     17.28191064	     -0.29489953	      0.30162624	     20.49354232	      2.14568978	     -7.50220450	    -29.43471166	     -2.22239292	     -2.46573208	     -3.61409862	     -4.06402759	    -20.04346752	     34.26554404	     90.00000001	      0.00000000	      0.00000000	      0.72146129	     -3.68844125	    -16.67677511	     43.32631496	     90.00000001	      0.00000000	      0.00000000
      1.76000000	     15.15514585	      0.17294324	      0.43818460	     -0.45101748	      0.89484328	      0.12132907	      2.45439334	     -1.41564580	     -6.09920276	     66.66003871	     -4.00803385	      1.16343715	      9.92821953	    -18.40611902	     -7.50216024	    -13.42879013	      2.60226258	    -14.75683336	     16.28842359	     -0.08561153	      0.28428662	     20.74386599	      3.02693731	     -7.50216024	    -29.56824810	     -1.83092274	     -2.78259507	     -3.75372210	     -4.06745868	    -20.33484131	     34.16044485	     90.00000001	      0.00000000	      0.00000000	      0.99770812	     -3.80742618	    -16.16425812	     43.98115579	     90.00000001	      0.00000000	      0.00000000
      1.77000000	     15.31913866	     -0.04563920	      0.70956680	     -0.44046678	      0.89501184	      0.12157552	      3.61287342	     -1.19543229	     -6.14195486	     65.23566089	     -3.95296804	      1.13857707	     10.75132295	    -18.30434275	     -7.50208685	    -14.89690934	      2.18050159	    -14.92396438	     15.24916978	      0.19202042	      0.26614822	     21.09181694	      4.52964596	     -7.50208685	    -29.75564574	     -1.49214541	     -3.11999155	     -3.85592450	     -3.95981772	    -20.95540724	     33.95543608	     90.00000001	      0.00000000	      0.00000000	      1.09615832	     -4.08039791	    -15.15707290	     44.96076204	     90.00000001	      0.00000000	      0.00000000
      1.78000000	     15.41711368	     -0.25929056	      0.89684097	     -0.42998952	      0.89492234	      0.12197270	      4.79825352	     -0.96979863	     -6.24787190	     63.54719161	     -4.00324879	      1.10910772	     11.11476286	    -18.29690997	     -7.50199683	    -16.24552407	      1.75459527	    -15.44179383	     14.30342390	      0.43773061	      0.24964184	     21.42407506	      6.02186976	     -7.50199683	    -29.89769369	     -1.20135635	     -3.33599219	     -3.90260427	     -3.84848697	    -21.72462438	     33.77605749	     90.00000001	      0.00000000	      0.00000000	      1.21222622	     -4.36547650	    -14.04529309	     45.87188868	     90.00000001	      0.00000000	      0.00000000
      1.79000000	     15.50620494	     -0.44108984	      1.03251272	     -0.41942545	      0.89456176	      0.12248412	      5.89171887	     -0.75648142	     -6.38260535	     61.55874319	     -4.14066430	      1.07440275	     11.25854178	    -18.30088200	     -7.50178106	    -17.48848214	      1.29655187	    -16.53480900	     13.61348317	      0.67163573	      0.23760010	     21.94074134	      8.20547625	     -7.50178106	    -30.01858375	     -0.96934637	     -3.42875967	     -3.81463241	     -3.57491745	    -23.48203551	     33.46319848	     90.00000001	      0.00000000	      0.00000000	      1.28879238	     -4.84964353	    -12.27140264	     46.92278595	     90.00000001	      0.00000000	      0.00000000
